<?xml version="1.0" standalone="no"?>
<!DOCTYPE svg PUBLIC "-//W3C//DTD SVG 20010904//EN"
 "http://www.w3.org/TR/2001/REC-SVG-20010904/DTD/svg10.dtd">
<svg version="1.0" xmlns="http://www.w3.org/2000/svg"
 width="512.000000pt" height="512.000000pt" viewBox="0 0 512.000000 512.000000"
 preserveAspectRatio="xMidYMid meet">

<g transform="translate(0.000000,512.000000) scale(0.100000,-0.100000)"
fill="#000000" stroke="none">
<path d="M2321 5110 c-868 -84 -1644 -610 -2037 -1382 -139 -273 -221 -536
-266 -853 -20 -140 -17 -504 6 -660 39 -278 121 -541 247 -794 249 -502 647
-900 1150 -1150 815 -406 1779 -350 2539 147 297 194 579 482 771 788 74 116
184 342 234 478 51 138 110 376 131 531 23 157 26 521 6 660 -59 415 -191 769
-410 1099 -92 140 -185 254 -315 385 -399 403 -895 653 -1462 737 -122 18
-466 26 -594 14z m950 -1293 c279 -84 479 -290 550 -567 21 -81 21 -1299 0
-1380 -73 -285 -286 -498 -571 -571 -81 -21 -1299 -21 -1380 0 -279 72 -488
276 -568 555 -15 55 -17 123 -17 706 0 705 -1 685 60 825 95 213 309 391 525
434 30 6 64 13 75 15 11 2 301 3 645 2 554 -2 631 -4 681 -19z"/>
<path d="M1913 3565 c-86 -24 -154 -64 -224 -134 -72 -72 -111 -138 -134 -228
-23 -86 -22 -1201 0 -1288 24 -91 71 -169 142 -235 71 -67 134 -103 220 -125
86 -23 1201 -22 1288 0 91 24 169 71 235 142 67 71 103 134 125 220 22 85 22
1201 0 1286 -22 86 -58 149 -125 220 -66 71 -144 118 -235 142 -84 21 -1212
21 -1292 0z m1352 -186 c55 -14 111 -72 121 -124 15 -81 -47 -177 -122 -191
-83 -15 -154 20 -186 94 -39 87 4 184 97 217 49 17 38 17 90 4z m-561 -174
c184 -39 361 -177 444 -346 56 -114 75 -206 69 -334 -8 -174 -68 -305 -197
-435 -124 -125 -282 -190 -461 -190 -180 0 -332 64 -464 195 -131 131 -195
283 -195 465 0 182 64 334 195 465 164 164 381 228 609 180z"/>
<path d="M2417 2936 c-115 -48 -174 -104 -225 -213 -24 -52 -27 -70 -27 -163
0 -97 2 -110 32 -172 40 -84 107 -151 193 -192 60 -29 73 -31 170 -31 97 0
110 2 172 32 85 40 151 106 191 191 30 62 32 75 32 172 0 97 -2 110 -32 172
-40 85 -106 151 -191 191 -58 28 -79 32 -162 35 -82 2 -103 -1 -153 -22z"/>
</g>
</svg>
